<svg width="266" height="266" viewBox="0 0 266 266" fill="none" xmlns="http://www.w3.org/2000/svg">
<path d="M123.489 29.2705C126.483 20.0574 139.517 20.0574 142.511 29.2705L160.615 84.9909C161.954 89.1111 165.794 91.9007 170.126 91.9007H228.714C238.401 91.9007 242.429 104.297 234.592 109.991L187.193 144.428C183.688 146.974 182.221 151.488 183.56 155.608L201.665 211.329C204.658 220.542 194.114 228.203 186.276 222.509L138.878 188.072C135.373 185.526 130.627 185.526 127.122 188.072L79.7235 222.509C71.8864 228.203 61.3416 220.542 64.3351 211.329L82.4398 155.608C83.7785 151.488 82.3119 146.974 78.8071 144.428L31.4085 109.991C23.5713 104.297 27.5991 91.9007 37.2863 91.9007H95.8742C100.206 91.9007 104.046 89.1111 105.385 84.9909L123.489 29.2705Z" fill="url(#paint0_linear_61_21795)"/>
<defs>
<linearGradient id="paint0_linear_61_21795" x1="35.684" y1="21.3117" x2="137.04" y2="285.311" gradientUnits="userSpaceOnUse">
<stop stop-color="#EC0000"/>
<stop offset="1" stop-color="#960000"/>
</linearGradient>
</defs>
</svg>
