<svg width="98" height="139" viewBox="0 0 98 139" fill="none" xmlns="http://www.w3.org/2000/svg">
<rect x="3" y="3" width="92" height="133" rx="7" fill="#64A7D8"/>
<rect x="3" y="3" width="92" height="133" rx="7" stroke="white" stroke-width="6"/>
<path d="M24.8234 116V105.091H25.8195V115.105H31.0183V116H24.8234ZM33.0744 116V107.818H34.0279V116H33.0744ZM33.5592 106.412C33.3639 106.412 33.197 106.346 33.0585 106.215C32.92 106.08 32.8507 105.918 32.8507 105.73C32.8507 105.542 32.92 105.382 33.0585 105.251C33.197 105.116 33.3639 105.048 33.5592 105.048C33.7545 105.048 33.9214 105.116 34.0599 105.251C34.1984 105.382 34.2676 105.542 34.2676 105.73C34.2676 105.918 34.1984 106.08 34.0599 106.215C33.9214 106.346 33.7545 106.412 33.5592 106.412ZM39.6569 119.239C39.0994 119.239 38.6111 119.166 38.1921 119.02C37.773 118.878 37.4197 118.683 37.1321 118.434C36.8444 118.186 36.6207 117.907 36.4609 117.598L37.2386 117.087C37.3558 117.293 37.512 117.495 37.7073 117.694C37.9062 117.893 38.1637 118.058 38.4797 118.189C38.7993 118.321 39.1917 118.386 39.6569 118.386C40.3813 118.386 40.9655 118.205 41.4094 117.843C41.8568 117.481 42.0806 116.918 42.0806 116.154V114.311H41.9953C41.8853 114.56 41.7272 114.809 41.5213 115.057C41.3153 115.302 41.0454 115.506 40.7116 115.67C40.3813 115.833 39.9712 115.915 39.4811 115.915C38.8277 115.915 38.2471 115.753 37.7393 115.43C37.235 115.107 36.8373 114.645 36.5461 114.045C36.2585 113.441 36.1147 112.722 36.1147 111.888C36.1147 111.06 36.2549 110.332 36.5355 109.704C36.8196 109.075 37.2155 108.585 37.7233 108.234C38.2311 107.882 38.8224 107.706 39.4971 107.706C39.9978 107.706 40.4133 107.795 40.7436 107.973C41.0738 108.147 41.3384 108.363 41.5372 108.623C41.7397 108.882 41.8977 109.134 42.0113 109.379H42.1072V107.818H43.034V116.213C43.034 116.906 42.8867 117.475 42.5919 117.923C42.2972 118.37 41.8959 118.701 41.3881 118.914C40.8803 119.13 40.3032 119.239 39.6569 119.239ZM39.593 115.047C40.1186 115.047 40.5678 114.92 40.9407 114.668C41.3135 114.413 41.5994 114.047 41.7983 113.571C41.9971 113.095 42.0965 112.529 42.0965 111.872C42.0965 111.233 41.9989 110.666 41.8036 110.173C41.6083 109.675 41.3242 109.285 40.9513 109.001C40.582 108.713 40.1292 108.569 39.593 108.569C39.0461 108.569 38.5845 108.717 38.2081 109.011C37.8316 109.306 37.5475 109.704 37.3558 110.205C37.164 110.702 37.0681 111.257 37.0681 111.872C37.0681 112.497 37.1658 113.049 37.3611 113.528C37.5564 114.004 37.8423 114.377 38.2187 114.647C38.5951 114.913 39.0532 115.047 39.593 115.047ZM46.4924 110.886V116H45.5443V107.818H46.4658V109.102H46.551C46.7428 108.683 47.0411 108.347 47.4459 108.095C47.8543 107.839 48.3585 107.712 48.9587 107.712C49.5091 107.712 49.9921 107.827 50.4075 108.058C50.8266 108.285 51.1515 108.621 51.3823 109.065C51.6167 109.509 51.7339 110.054 51.7339 110.7V116H50.7857V110.759C50.7857 110.087 50.5975 109.556 50.2211 109.166C49.8482 108.775 49.3475 108.58 48.719 108.58C48.2893 108.58 47.9075 108.672 47.5737 108.857C47.2399 109.042 46.9754 109.308 46.7801 109.656C46.5883 110 46.4924 110.411 46.4924 110.886ZM57.5387 116.17C56.7752 116.17 56.1147 115.993 55.5571 115.638C54.9996 115.279 54.5681 114.784 54.2627 114.152C53.9609 113.516 53.81 112.784 53.81 111.957C53.81 111.133 53.9609 110.402 54.2627 109.762C54.5681 109.12 54.9889 108.617 55.5252 108.255C56.0649 107.889 56.6882 107.706 57.3948 107.706C57.8387 107.706 58.2666 107.788 58.6786 107.951C59.0905 108.111 59.4598 108.358 59.7865 108.692C60.1168 109.022 60.3778 109.439 60.5696 109.944C60.7613 110.444 60.8572 111.037 60.8572 111.723V112.191H54.4652V111.355H59.8877C59.8877 110.83 59.7812 110.357 59.5681 109.938C59.3586 109.516 59.0657 109.182 58.6892 108.937C58.3164 108.692 57.8849 108.569 57.3948 108.569C56.8764 108.569 56.4201 108.708 56.0259 108.985C55.6317 109.262 55.3228 109.627 55.099 110.082C54.8789 110.537 54.767 111.034 54.7634 111.574V112.074C54.7634 112.724 54.8753 113.292 55.099 113.779C55.3263 114.262 55.6477 114.636 56.0632 114.903C56.4786 115.169 56.9705 115.302 57.5387 115.302C57.9257 115.302 58.2649 115.242 58.5561 115.121C58.8508 115 59.0976 114.839 59.2965 114.636C59.4989 114.43 59.6516 114.205 59.7546 113.96L60.6548 114.253C60.5305 114.597 60.3263 114.915 60.0422 115.206C59.7617 115.498 59.4101 115.732 58.9875 115.909C58.5685 116.083 58.0855 116.17 57.5387 116.17ZM67.3624 116V105.091H71.0432C71.7534 105.091 72.3447 105.215 72.817 105.464C73.2928 105.712 73.6497 106.051 73.8877 106.481C74.1256 106.911 74.2445 107.399 74.2445 107.946C74.2445 108.401 74.1682 108.789 74.0155 109.113C73.8628 109.436 73.6551 109.697 73.3923 109.896C73.1295 110.094 72.8365 110.238 72.5134 110.327V110.412C72.8649 110.437 73.2058 110.561 73.5361 110.785C73.8663 111.005 74.138 111.314 74.3511 111.712C74.5641 112.11 74.6707 112.586 74.6707 113.14C74.6707 113.69 74.5482 114.182 74.3031 114.615C74.0581 115.045 73.6817 115.384 73.1739 115.632C72.6696 115.877 72.0269 116 71.2456 116H67.3624ZM68.3585 115.105H71.2456C72.0872 115.105 72.7087 114.919 73.11 114.546C73.5148 114.173 73.7172 113.704 73.7172 113.14C73.7172 112.724 73.616 112.348 73.4136 112.01C73.2147 111.669 72.9324 111.4 72.5666 111.201C72.2044 111.002 71.7783 110.902 71.2882 110.902H68.3585V115.105ZM68.3585 110.018H71.1337C71.5634 110.018 71.9399 109.929 72.263 109.752C72.5862 109.574 72.8383 109.329 73.0194 109.017C73.2005 108.704 73.2911 108.347 73.2911 107.946C73.2911 107.367 73.1028 106.897 72.7264 106.534C72.35 106.169 71.7889 105.986 71.0432 105.986H68.3585V110.018Z" fill="white"/>
<rect x="19" y="25" width="59" height="53" rx="10" fill="#D8FFB9" fill-opacity="0.56"/>
<path d="M38.4787 68C37.5787 68 36.7954 67.7 36.1287 67.1C35.462 66.5 35.1287 65.7833 35.1287 64.95V36.05C35.1287 35.2167 35.4454 34.5 36.0787 33.9C36.7454 33.3 37.5454 33 38.4787 33H51.9287C55.1287 33 57.6787 33.9 59.5787 35.7C61.512 37.4667 62.4787 39.85 62.4787 42.85C62.4787 44.2833 62.0954 45.65 61.3287 46.95C60.562 48.2167 59.5454 49.2 58.2787 49.9V50.05C60.012 50.65 61.3787 51.6333 62.3787 53C63.412 54.3667 63.9287 55.9333 63.9287 57.7C63.9287 59.7 63.462 61.4833 62.5287 63.05C61.5954 64.6167 60.2954 65.8333 58.6287 66.7C56.962 67.5667 55.062 68 52.9287 68H38.4787ZM51.8287 47.7C52.9287 47.7 53.862 47.25 54.6287 46.35C55.4287 45.45 55.8287 44.3667 55.8287 43.1C55.8287 41.7333 55.462 40.65 54.7287 39.85C54.0287 39.05 53.062 38.65 51.8287 38.65H41.6287V47.7H51.8287ZM52.8287 62.35C54.1954 62.35 55.2787 61.95 56.0787 61.15C56.8787 60.3167 57.2787 59.1833 57.2787 57.75C57.2787 56.35 56.8787 55.2667 56.0787 54.5C55.312 53.7 54.2287 53.3 52.8287 53.3H41.6287V62.35H52.8287Z" fill="black"/>
</svg>
