<svg width="98" height="139" viewBox="0 0 98 139" fill="none" xmlns="http://www.w3.org/2000/svg">
<rect x="3" y="3" width="92" height="133" rx="7" fill="#64A7D8"/>
<rect x="3" y="3" width="92" height="133" rx="7" stroke="white" stroke-width="6"/>
<path d="M39.9852 116H36.7892V105.091H40.177C41.2175 105.091 42.107 105.308 42.8457 105.741C43.5878 106.174 44.156 106.795 44.5502 107.605C44.9444 108.415 45.1415 109.386 45.1415 110.519C45.1415 111.662 44.9391 112.644 44.5342 113.464C44.1329 114.281 43.547 114.908 42.7764 115.345C42.0094 115.782 41.079 116 39.9852 116ZM37.7853 115.105H39.9266C40.8641 115.105 41.6489 114.92 42.281 114.551C42.9131 114.182 43.3872 113.654 43.7033 112.969C44.0193 112.284 44.1773 111.467 44.1773 110.519C44.1738 109.578 44.0175 108.768 43.7086 108.09C43.4032 107.412 42.9486 106.891 42.3449 106.529C41.7448 106.167 41.0026 105.986 40.1184 105.986H37.7853V115.105ZM50.5388 116.17C49.8321 116.17 49.2071 115.991 48.6638 115.632C48.124 115.274 47.7014 114.778 47.396 114.146C47.0906 113.511 46.9379 112.777 46.9379 111.946C46.9379 111.108 47.0906 110.371 47.396 109.736C47.7014 109.097 48.124 108.599 48.6638 108.244C49.2071 107.886 49.8321 107.706 50.5388 107.706C51.2454 107.706 51.8687 107.886 52.4084 108.244C52.9482 108.603 53.3708 109.1 53.6762 109.736C53.9851 110.371 54.1396 111.108 54.1396 111.946C54.1396 112.777 53.9869 113.511 53.6815 114.146C53.3761 114.778 52.9517 115.274 52.4084 115.632C51.8687 115.991 51.2454 116.17 50.5388 116.17ZM50.5388 115.302C51.1069 115.302 51.5881 115.15 51.9823 114.844C52.3765 114.539 52.6748 114.132 52.8772 113.624C53.0831 113.116 53.1861 112.557 53.1861 111.946C53.1861 111.336 53.0831 110.775 52.8772 110.263C52.6748 109.752 52.3765 109.342 51.9823 109.033C51.5881 108.724 51.1069 108.569 50.5388 108.569C49.9741 108.569 49.4929 108.724 49.0952 109.033C48.701 109.342 48.401 109.752 48.195 110.263C47.9926 110.775 47.8914 111.336 47.8914 111.946C47.8914 112.557 47.9926 113.116 48.195 113.624C48.401 114.132 48.701 114.539 49.0952 114.844C49.4894 115.15 49.9706 115.302 50.5388 115.302ZM61.7182 109.613L60.8499 109.858C60.7647 109.613 60.644 109.391 60.4877 109.192C60.3315 108.994 60.1273 108.836 59.8751 108.718C59.6266 108.601 59.3176 108.543 58.9483 108.543C58.3943 108.543 57.9398 108.674 57.5847 108.937C57.2295 109.2 57.052 109.539 57.052 109.954C57.052 110.306 57.1727 110.592 57.4142 110.812C57.6592 111.028 58.0356 111.201 58.5435 111.328L59.7793 111.632C60.4646 111.799 60.9778 112.064 61.3187 112.426C61.6631 112.788 61.8354 113.243 61.8354 113.789C61.8354 114.251 61.7075 114.661 61.4518 115.02C61.1962 115.379 60.8393 115.661 60.3812 115.867C59.9266 116.069 59.3993 116.17 58.7991 116.17C58.0001 116.17 57.3414 115.991 56.8229 115.632C56.3045 115.27 55.9724 114.748 55.8268 114.066L56.7377 113.843C56.8549 114.329 57.0839 114.697 57.4248 114.945C57.7693 115.194 58.2221 115.318 58.7832 115.318C59.4117 115.318 59.9142 115.178 60.2906 114.897C60.667 114.613 60.8552 114.258 60.8552 113.832C60.8552 113.502 60.7452 113.225 60.525 113.001C60.3048 112.774 59.971 112.607 59.5236 112.5L58.1866 112.181C57.4763 112.01 56.9508 111.74 56.6099 111.371C56.269 111.002 56.0985 110.544 56.0985 109.997C56.0985 109.546 56.221 109.15 56.466 108.809C56.7111 108.464 57.0484 108.195 57.4781 107.999C57.9078 107.804 58.3979 107.706 58.9483 107.706C59.6976 107.706 60.2959 107.877 60.7434 108.218C61.1944 108.555 61.5193 109.02 61.7182 109.613Z" fill="white"/>
<rect x="19" y="25" width="59" height="53" rx="10" fill="#92C2E5"/>
<path d="M65.2381 25H31.7619C30.7888 25 30 25.7839 30 26.7508V75.2492C30 76.2161 30.7888 77 31.7619 77H65.2381C66.2112 77 67 76.2161 67 75.2492V26.7508C67 25.7839 66.2112 25 65.2381 25Z" fill="url(#paint0_linear_92_13761)"/>
<mask id="mask0_92_13761" style="mask-type:luminance" maskUnits="userSpaceOnUse" x="31" y="26" width="35" height="50">
<path d="M64.1814 26.4006H32.8195C31.8464 26.4006 31.0576 27.1845 31.0576 28.1515V73.6734C31.0576 74.6403 31.8464 75.4242 32.8195 75.4242H64.1814C65.1545 75.4242 65.9433 74.6403 65.9433 73.6734V28.1515C65.9433 27.1845 65.1545 26.4006 64.1814 26.4006Z" fill="white"/>
</mask>
<g mask="url(#mask0_92_13761)">
<path d="M64.1814 26.4006H32.8195C31.8464 26.4006 31.0576 27.1845 31.0576 28.1515V73.6734C31.0576 74.6403 31.8464 75.4242 32.8195 75.4242H64.1814C65.1545 75.4242 65.9433 74.6403 65.9433 73.6734V28.1515C65.9433 27.1845 65.1545 26.4006 64.1814 26.4006Z" stroke="white" stroke-width="3"/>
</g>
<path d="M39.3379 43.0162C39.3379 42.526 39.4877 42.1057 39.7872 41.7556C40.1043 41.4229 40.4919 41.2566 40.95 41.2566H56.2257C56.6838 41.2566 57.0627 41.4229 57.3622 41.7556C57.6793 42.0882 57.8379 42.5084 57.8379 43.0162V48.8465C57.8379 50.4047 57.5384 51.7792 56.9393 52.9697C56.3403 54.1778 55.4946 55.1057 54.4022 55.7536C53.3274 56.4189 52.0941 56.7515 50.7022 56.7515H46.5265C45.1346 56.7515 43.8924 56.4189 42.8 55.7536C41.7077 55.0882 40.8531 54.1515 40.2365 52.9435C39.6374 51.7529 39.3379 50.3872 39.3379 48.8465V43.0162ZM42.3772 48.5839C42.3772 50.1071 42.7207 51.2627 43.4079 52.0505C44.1127 52.8384 45.1434 53.2323 46.5 53.2323H50.755C52.0765 53.2323 53.0807 52.8384 53.7679 52.0505C54.455 51.2627 54.7986 50.1071 54.7986 48.5839V44.7758H42.3772V48.5839Z" fill="url(#paint1_linear_92_13761)"/>
<path d="M44.0602 67.3528C43.2967 67.3528 42.6037 67.2185 41.9811 66.9501C41.3703 66.67 40.8888 66.2848 40.5364 65.7946C40.184 65.3043 40.0078 64.7498 40.0078 64.1313V61.6626C40.0078 61.0323 40.1781 60.4603 40.5188 59.9467C40.8711 59.4332 41.3527 59.0305 41.9635 58.7387C42.5743 58.4352 43.2732 58.2834 44.0602 58.2834C44.8472 58.2834 45.5461 58.4352 46.1569 58.7387C46.7794 59.0305 47.261 59.4332 47.6016 59.9467C47.954 60.4603 48.1302 61.0323 48.1302 61.6626V64.1313C48.1302 64.7498 47.9482 65.3043 47.584 65.7946C47.2316 66.2848 46.7442 66.67 46.1216 66.9501C45.5108 67.2185 44.8237 67.3528 44.0602 67.3528ZM44.0602 65.4794C44.6475 65.4794 45.1056 65.3451 45.4345 65.0767C45.7751 64.8083 45.9454 64.4464 45.9454 63.9912V61.7676C45.9454 61.2891 45.7751 60.9039 45.4345 60.6121C45.1056 60.3086 44.6475 60.1568 44.0602 60.1568C43.4846 60.1568 43.0265 60.3086 42.6859 60.6121C42.3453 60.9039 42.175 61.2891 42.175 61.7676V63.9912C42.175 64.4464 42.3453 64.8083 42.6859 65.0767C43.0265 65.3451 43.4846 65.4794 44.0602 65.4794ZM52.9705 67.3528C51.8429 67.3528 50.9325 67.1544 50.2395 66.7575C49.5582 66.349 49.2118 65.8063 49.2 65.1292C49.2 64.8374 49.3175 64.5923 49.5524 64.3939C49.7991 64.1955 50.1867 64.0905 50.7153 64.0787C50.821 64.5923 51.0676 64.9892 51.4553 65.2693C51.8429 65.5377 52.3128 65.672 52.8648 65.672C53.4638 65.672 53.9337 65.5962 54.2743 65.4444C54.6149 65.2926 54.7853 65.065 54.7853 64.7616C54.7853 64.4814 54.6443 64.248 54.3624 64.0612C54.0923 63.8744 53.5519 63.6878 52.7415 63.501C51.8605 63.2909 51.1734 63.0808 50.68 62.8707C50.1985 62.6606 49.8401 62.3921 49.6053 62.0653C49.3704 61.7384 49.2529 61.3066 49.2529 60.7696C49.2529 60.0226 49.57 59.4215 50.2043 58.9663C50.8386 58.5111 51.7077 58.2834 52.8119 58.2834C53.8809 58.2834 54.7676 58.476 55.4724 58.8612C56.1772 59.2347 56.5295 59.7366 56.5295 60.3669C56.5295 60.6821 56.412 60.9155 56.1772 61.0673C55.9423 61.2191 55.5547 61.3007 55.0143 61.3124C54.8968 60.8455 54.6737 60.4953 54.3448 60.2619C54.0158 60.0285 53.5519 59.9117 52.9529 59.9117C52.5066 59.9117 52.119 59.9875 51.79 60.1393C51.4729 60.2911 51.3143 60.4895 51.3143 60.7346C51.3143 60.9915 51.4494 61.1898 51.7195 61.3299C51.9896 61.47 52.4595 61.61 53.1291 61.7501C54.4447 62.0302 55.3961 62.4037 55.9834 62.8707C56.5824 63.3376 56.8819 63.9737 56.8819 64.7791C56.8819 65.5612 56.5295 66.1855 55.8248 66.6525C55.1318 67.1194 54.1804 67.3528 52.9705 67.3528Z" fill="white"/>
<path d="M44.0952 37.9562C45.3602 37.9562 46.3856 36.9372 46.3856 35.6801C46.3856 34.4231 45.3602 33.4041 44.0952 33.4041C42.8302 33.4041 41.8047 34.4231 41.8047 35.6801C41.8047 36.9372 42.8302 37.9562 44.0952 37.9562Z" fill="white"/>
<path d="M52.1997 37.9562C53.4647 37.9562 54.4901 36.9372 54.4901 35.6801C54.4901 34.4231 53.4647 33.4041 52.1997 33.4041C50.9347 33.4041 49.9092 34.4231 49.9092 35.6801C49.9092 36.9372 50.9347 37.9562 52.1997 37.9562Z" fill="white"/>
<defs>
<linearGradient id="paint0_linear_92_13761" x1="34.8452" y1="27.7138" x2="61.7236" y2="74.3456" gradientUnits="userSpaceOnUse">
<stop stop-color="#383838"/>
<stop offset="1" stop-color="#101010"/>
</linearGradient>
<linearGradient id="paint1_linear_92_13761" x1="64.2472" y1="42.1498" x2="38.5875" y2="60.7378" gradientUnits="userSpaceOnUse">
<stop stop-color="#EC0000"/>
<stop offset="1" stop-color="#960000"/>
</linearGradient>
</defs>
</svg>
