<svg width="98" height="139" viewBox="0 0 98 139" fill="none" xmlns="http://www.w3.org/2000/svg">
<g clip-path="url(#clip0_92_12995)">
<rect width="98" height="139" rx="10" fill="#6195BA"/>
<path d="M9.07617 12L1.28194 16.5" stroke="#426E8E"/>
<path d="M18.9736 6.25L11.1794 10.75" stroke="#426E8E"/>
<path d="M28.8711 0.5L21.0769 5" stroke="#426E8E"/>
<path d="M4.17871 22.75L-3.61552 27.25" stroke="#426E8E"/>
<path d="M14.0762 17L6.28194 21.5" stroke="#426E8E"/>
<path d="M23.9736 11.25L16.1794 15.75" stroke="#426E8E"/>
<path d="M33.8711 5.5L26.0769 10" stroke="#426E8E"/>
<path d="M43.7686 -0.25L35.9743 4.25" stroke="#426E8E"/>
<path d="M9.17871 27.75L1.38448 32.25" stroke="#426E8E"/>
<path d="M19.0762 22L11.2819 26.5" stroke="#426E8E"/>
<path d="M28.9736 16.25L21.1794 20.75" stroke="#426E8E"/>
<path d="M38.8711 10.5L31.0769 15" stroke="#426E8E"/>
<path d="M48.7686 4.75L40.9743 9.25" stroke="#426E8E"/>
<path d="M58.666 -1L50.8718 3.5" stroke="#426E8E"/>
<path d="M4.28125 38.5L-3.51298 43" stroke="#426E8E"/>
<path d="M14.1787 32.75L6.38448 37.25" stroke="#426E8E"/>
<path d="M24.0762 27L16.2819 31.5" stroke="#426E8E"/>
<path d="M33.9736 21.25L26.1794 25.75" stroke="#426E8E"/>
<path d="M43.8711 15.5L36.0769 20" stroke="#426E8E"/>
<path d="M53.7686 9.75L45.9743 14.25" stroke="#426E8E"/>
<path d="M63.666 4L55.8718 8.5" stroke="#426E8E"/>
<path d="M73.5635 -1.75L65.7692 2.75" stroke="#426E8E"/>
<path d="M9.28125 43.5L1.48702 48" stroke="#426E8E"/>
<path d="M19.1787 37.75L11.3845 42.25" stroke="#426E8E"/>
<path d="M29.0762 32L21.2819 36.5" stroke="#426E8E"/>
<path d="M38.9736 26.25L31.1794 30.75" stroke="#426E8E"/>
<path d="M48.8711 20.5L41.0769 25" stroke="#426E8E"/>
<path d="M58.7686 14.75L50.9743 19.25" stroke="#426E8E"/>
<path d="M68.666 9L60.8718 13.5" stroke="#426E8E"/>
<path d="M78.5635 3.25L70.7692 7.75" stroke="#426E8E"/>
<path d="M88.4609 -2.5L80.6667 2" stroke="#426E8E"/>
<path d="M4.38379 54.25L-3.41044 58.75" stroke="#426E8E"/>
<path d="M14.2812 48.5L6.48702 53" stroke="#426E8E"/>
<path d="M24.1787 42.75L16.3845 47.25" stroke="#426E8E"/>
<path d="M34.0762 37L26.2819 41.5" stroke="#426E8E"/>
<path d="M43.9736 31.25L36.1794 35.75" stroke="#426E8E"/>
<path d="M53.8711 25.5L46.0769 30" stroke="#426E8E"/>
<path d="M63.7686 19.75L55.9743 24.25" stroke="#426E8E"/>
<path d="M73.666 14L65.8718 18.5" stroke="#426E8E"/>
<path d="M83.5635 8.25L75.7692 12.75" stroke="#426E8E"/>
<path d="M93.4609 2.5L85.6667 7" stroke="#426E8E"/>
<path d="M103.358 -3.25L95.5642 1.25" stroke="#426E8E"/>
<path d="M9.38379 59.25L1.58956 63.75" stroke="#426E8E"/>
<path d="M19.2812 53.5L11.487 58" stroke="#426E8E"/>
<path d="M29.1787 47.75L21.3845 52.25" stroke="#426E8E"/>
<path d="M39.0762 42L31.2819 46.5" stroke="#426E8E"/>
<path d="M48.9736 36.25L41.1794 40.75" stroke="#426E8E"/>
<path d="M58.8711 30.5L51.0769 35" stroke="#426E8E"/>
<path d="M68.7686 24.75L60.9743 29.25" stroke="#426E8E"/>
<path d="M78.666 19L70.8718 23.5" stroke="#426E8E"/>
<path d="M88.5635 13.25L80.7692 17.75" stroke="#426E8E"/>
<path d="M98.4609 7.5L90.6667 12" stroke="#426E8E"/>
<path d="M4.48633 70L-3.3079 74.5" stroke="#426E8E"/>
<path d="M14.3838 64.25L6.58956 68.75" stroke="#426E8E"/>
<path d="M24.2812 58.5L16.487 63" stroke="#426E8E"/>
<path d="M34.1787 52.75L26.3845 57.25" stroke="#426E8E"/>
<path d="M44.0762 47L36.2819 51.5" stroke="#426E8E"/>
<path d="M53.9736 41.25L46.1794 45.75" stroke="#426E8E"/>
<path d="M63.8711 35.5L56.0769 40" stroke="#426E8E"/>
<path d="M73.7686 29.75L65.9743 34.25" stroke="#426E8E"/>
<path d="M83.666 24L75.8718 28.5" stroke="#426E8E"/>
<path d="M93.5635 18.25L85.7692 22.75" stroke="#426E8E"/>
<path d="M103.461 12.5L95.6667 17" stroke="#426E8E"/>
<path d="M9.48633 75L1.6921 79.5" stroke="#426E8E"/>
<path d="M19.3838 69.25L11.5896 73.75" stroke="#426E8E"/>
<path d="M29.2812 63.5L21.487 68" stroke="#426E8E"/>
<path d="M39.1787 57.75L31.3845 62.25" stroke="#426E8E"/>
<path d="M49.0762 52L41.2819 56.5" stroke="#426E8E"/>
<path d="M58.9736 46.25L51.1794 50.75" stroke="#426E8E"/>
<path d="M68.8711 40.5L61.0769 45" stroke="#426E8E"/>
<path d="M78.7686 34.75L70.9743 39.25" stroke="#426E8E"/>
<path d="M88.666 29L80.8718 33.5" stroke="#426E8E"/>
<path d="M98.5635 23.25L90.7692 27.75" stroke="#426E8E"/>
<path d="M4.58887 85.75L-3.20536 90.25" stroke="#426E8E"/>
<path d="M14.4863 80L6.6921 84.5" stroke="#426E8E"/>
<path d="M24.3838 74.25L16.5896 78.75" stroke="#426E8E"/>
<path d="M34.2812 68.5L26.487 73" stroke="#426E8E"/>
<path d="M44.1787 62.75L36.3845 67.25" stroke="#426E8E"/>
<path d="M54.0762 57L46.2819 61.5" stroke="#426E8E"/>
<path d="M63.9736 51.25L56.1794 55.75" stroke="#426E8E"/>
<path d="M73.8711 45.5L66.0769 50" stroke="#426E8E"/>
<path d="M83.7686 39.75L75.9743 44.25" stroke="#426E8E"/>
<path d="M93.666 34L85.8718 38.5" stroke="#426E8E"/>
<path d="M103.563 28.25L95.7692 32.75" stroke="#426E8E"/>
<path d="M9.58887 90.75L1.79464 95.25" stroke="#426E8E"/>
<path d="M19.4863 85L11.6921 89.5" stroke="#426E8E"/>
<path d="M29.3838 79.25L21.5896 83.75" stroke="#426E8E"/>
<path d="M39.2812 73.5L31.487 78" stroke="#426E8E"/>
<path d="M49.1787 67.75L41.3845 72.25" stroke="#426E8E"/>
<path d="M59.0762 62L51.2819 66.5" stroke="#426E8E"/>
<path d="M68.9736 56.25L61.1794 60.75" stroke="#426E8E"/>
<path d="M78.8711 50.5L71.0769 55" stroke="#426E8E"/>
<path d="M88.7686 44.75L80.9743 49.25" stroke="#426E8E"/>
<path d="M98.666 39L90.8718 43.5" stroke="#426E8E"/>
<path d="M4.69141 101.5L-3.10282 106" stroke="#426E8E"/>
<path d="M14.5889 95.75L6.79464 100.25" stroke="#426E8E"/>
<path d="M24.4863 90L16.6921 94.5" stroke="#426E8E"/>
<path d="M34.3838 84.25L26.5896 88.75" stroke="#426E8E"/>
<path d="M44.2812 78.5L36.487 83" stroke="#426E8E"/>
<path d="M54.1787 72.75L46.3845 77.25" stroke="#426E8E"/>
<path d="M64.0762 67L56.2819 71.5" stroke="#426E8E"/>
<path d="M73.9736 61.25L66.1794 65.75" stroke="#426E8E"/>
<path d="M83.8711 55.5L76.0769 60" stroke="#426E8E"/>
<path d="M93.7686 49.75L85.9743 54.25" stroke="#426E8E"/>
<path d="M103.666 44L95.8718 48.5" stroke="#426E8E"/>
<path d="M-0.206055 112.25L-8.00028 116.75" stroke="#426E8E"/>
<path d="M9.69141 106.5L1.89718 111" stroke="#426E8E"/>
<path d="M19.5889 100.75L11.7946 105.25" stroke="#426E8E"/>
<path d="M29.4863 95L21.6921 99.5" stroke="#426E8E"/>
<path d="M39.3838 89.25L31.5896 93.75" stroke="#426E8E"/>
<path d="M49.2812 83.5L41.487 88" stroke="#426E8E"/>
<path d="M59.1787 77.75L51.3845 82.25" stroke="#426E8E"/>
<path d="M69.0762 72L61.2819 76.5" stroke="#426E8E"/>
<path d="M78.9736 66.25L71.1794 70.75" stroke="#426E8E"/>
<path d="M88.8711 60.5L81.0769 65" stroke="#426E8E"/>
<path d="M98.7686 54.75L90.9743 59.25" stroke="#426E8E"/>
<path d="M4.79395 117.25L-3.00028 121.75" stroke="#426E8E"/>
<path d="M14.6914 111.5L6.89718 116" stroke="#426E8E"/>
<path d="M24.5889 105.75L16.7946 110.25" stroke="#426E8E"/>
<path d="M34.4863 100L26.6921 104.5" stroke="#426E8E"/>
<path d="M44.3838 94.25L36.5896 98.75" stroke="#426E8E"/>
<path d="M54.2812 88.5L46.487 93" stroke="#426E8E"/>
<path d="M64.1787 82.75L56.3845 87.25" stroke="#426E8E"/>
<path d="M74.0762 77L66.2819 81.5" stroke="#426E8E"/>
<path d="M83.9736 71.25L76.1794 75.75" stroke="#426E8E"/>
<path d="M93.8711 65.5L86.0769 70" stroke="#426E8E"/>
<path d="M103.769 59.75L95.9743 64.25" stroke="#426E8E"/>
<path d="M9.79395 122.25L1.99972 126.75" stroke="#426E8E"/>
<path d="M19.6914 116.5L11.8972 121" stroke="#426E8E"/>
<path d="M29.5889 110.75L21.7946 115.25" stroke="#426E8E"/>
<path d="M39.4863 105L31.6921 109.5" stroke="#426E8E"/>
<path d="M49.3838 99.25L41.5896 103.75" stroke="#426E8E"/>
<path d="M59.2812 93.5L51.487 98" stroke="#426E8E"/>
<path d="M69.1787 87.75L61.3845 92.25" stroke="#426E8E"/>
<path d="M79.0762 82L71.2819 86.5" stroke="#426E8E"/>
<path d="M88.9736 76.25L81.1794 80.75" stroke="#426E8E"/>
<path d="M98.8711 70.5L91.0769 75" stroke="#426E8E"/>
<path d="M14.7939 127.25L6.99972 131.75" stroke="#426E8E"/>
<path d="M24.6914 121.5L16.8972 126" stroke="#426E8E"/>
<path d="M34.5889 115.75L26.7946 120.25" stroke="#426E8E"/>
<path d="M44.4863 110L36.6921 114.5" stroke="#426E8E"/>
<path d="M54.3838 104.25L46.5896 108.75" stroke="#426E8E"/>
<path d="M64.2812 98.5L56.487 103" stroke="#426E8E"/>
<path d="M74.1787 92.75L66.3845 97.25" stroke="#426E8E"/>
<path d="M84.0762 87L76.2819 91.5" stroke="#426E8E"/>
<path d="M93.9736 81.25L86.1794 85.75" stroke="#426E8E"/>
<path d="M103.871 75.5L96.0769 80" stroke="#426E8E"/>
<path d="M19.7939 132.25L11.9997 136.75" stroke="#426E8E"/>
<path d="M29.6914 126.5L21.8972 131" stroke="#426E8E"/>
<path d="M39.5889 120.75L31.7946 125.25" stroke="#426E8E"/>
<path d="M49.4863 115L41.6921 119.5" stroke="#426E8E"/>
<path d="M59.3838 109.25L51.5896 113.75" stroke="#426E8E"/>
<path d="M69.2812 103.5L61.487 108" stroke="#426E8E"/>
<path d="M79.1787 97.75L71.3845 102.25" stroke="#426E8E"/>
<path d="M89.0762 92L81.2819 96.5" stroke="#426E8E"/>
<path d="M98.9736 86.25L91.1794 90.75" stroke="#426E8E"/>
<path d="M24.7939 137.25L16.9997 141.75" stroke="#426E8E"/>
<path d="M34.6914 131.5L26.8972 136" stroke="#426E8E"/>
<path d="M44.5889 125.75L36.7946 130.25" stroke="#426E8E"/>
<path d="M54.4863 120L46.6921 124.5" stroke="#426E8E"/>
<path d="M64.3838 114.25L56.5896 118.75" stroke="#426E8E"/>
<path d="M74.2812 108.5L66.487 113" stroke="#426E8E"/>
<path d="M84.1787 102.75L76.3845 107.25" stroke="#426E8E"/>
<path d="M94.0762 97L86.2819 101.5" stroke="#426E8E"/>
<path d="M103.974 91.25L96.1794 95.75" stroke="#426E8E"/>
<path d="M39.6914 136.5L31.8972 141" stroke="#426E8E"/>
<path d="M49.5889 130.75L41.7946 135.25" stroke="#426E8E"/>
<path d="M59.4863 125L51.6921 129.5" stroke="#426E8E"/>
<path d="M69.3838 119.25L61.5896 123.75" stroke="#426E8E"/>
<path d="M79.2812 113.5L71.487 118" stroke="#426E8E"/>
<path d="M89.1787 107.75L81.3845 112.25" stroke="#426E8E"/>
<path d="M99.0762 102L91.2819 106.5" stroke="#426E8E"/>
<path d="M54.5889 135.75L46.7946 140.25" stroke="#426E8E"/>
<path d="M64.4863 130L56.6921 134.5" stroke="#426E8E"/>
<path d="M74.3838 124.25L66.5896 128.75" stroke="#426E8E"/>
<path d="M84.2812 118.5L76.487 123" stroke="#426E8E"/>
<path d="M94.1787 112.75L86.3845 117.25" stroke="#426E8E"/>
<path d="M104.076 107L96.2819 111.5" stroke="#426E8E"/>
<path d="M69.4863 135L61.6921 139.5" stroke="#426E8E"/>
<path d="M79.3838 129.25L71.5896 133.75" stroke="#426E8E"/>
<path d="M89.2812 123.5L81.487 128" stroke="#426E8E"/>
<path d="M99.1787 117.75L91.3845 122.25" stroke="#426E8E"/>
<path d="M84.3838 134.25L76.5896 138.75" stroke="#426E8E"/>
<path d="M94.2812 128.5L86.487 133" stroke="#426E8E"/>
<path d="M104.179 122.75L96.3845 127.25" stroke="#426E8E"/>
<path d="M45.4844 73.7754C54.2409 73.7754 58.6191 70.0156 58.6191 62.4961C58.6191 54.5208 54.0456 49.2148 44.8984 46.5781C41.1875 45.4714 36.9883 44.8854 32.3008 44.8203V35.6406C43.8893 35.6406 52.9714 38.3587 59.5469 43.7949C65.4388 48.7103 68.3848 54.944 68.3848 62.4961C68.3848 70.2109 65.0807 75.7448 58.4727 79.0977C55.9336 80.3997 52.7272 81.1484 48.8535 81.3438V87.3496H40.5527V73.5801C41.8548 73.7103 43.4987 73.7754 45.4844 73.7754ZM38.3066 99.3125C38.3066 97.4245 38.9089 95.9759 40.1133 94.9668C41.3177 93.9577 42.8477 93.4531 44.7031 93.4531C46.5586 93.4531 48.1048 93.9577 49.3418 94.9668C50.5788 95.9759 51.1973 97.4245 51.1973 99.3125C51.1973 101.201 50.5788 102.649 49.3418 103.658C48.1048 104.667 46.5586 105.172 44.7031 105.172C42.8477 105.172 41.3177 104.667 40.1133 103.658C38.9089 102.649 38.3066 101.201 38.3066 99.3125Z" fill="white"/>
</g>
<rect x="3" y="3" width="92" height="133" rx="7" stroke="white" stroke-width="6"/>
<defs>
<clipPath id="clip0_92_12995">
<rect width="98" height="139" rx="10" fill="white"/>
</clipPath>
</defs>
</svg>
