<svg width="210" height="297" viewBox="0 0 210 297" fill="none" xmlns="http://www.w3.org/2000/svg">
<rect width="210" height="297" rx="10" fill="url(#paint0_linear_6_754)"/>
<mask id="path-2-inside-1_6_754" fill="white">
<rect x="6" y="8" width="198" height="280" rx="10"/>
</mask>
<rect x="6" y="8" width="198" height="280" rx="10" stroke="white" stroke-width="30" mask="url(#path-2-inside-1_6_754)"/>
<path d="M53 102.9C53 100.1 53.85 97.7 55.55 95.7C57.35 93.8 59.55 92.85 62.15 92.85L148.85 92.85C151.45 92.85 153.6 93.8 155.3 95.7C157.1 97.6 158 100 158 102.9L158 136.2C158 145.1 156.3 152.95 152.9 159.75C149.5 166.65 144.7 171.95 138.5 175.65C132.4 179.45 125.4 181.35 117.5 181.35L93.8 181.35C85.9 181.35 78.85 179.45 72.65 175.65C66.45 171.85 61.6 166.5 58.1 159.6C54.7 152.8 53 145 53 136.2L53 102.9ZM70.25 134.7C70.25 143.4 72.2 150 76.1 154.5C80.1 159 85.95 161.25 93.65 161.25L117.8 161.25C125.3 161.25 131 159 134.9 154.5C138.8 150 140.75 143.4 140.75 134.7L140.75 112.95L70.25 112.95L70.25 134.7Z" fill="url(#paint1_linear_6_754)"/>
<path d="M79.8 241.9C75.4667 241.9 71.5333 241.133 68 239.6C64.5333 238 61.8 235.8 59.8 233C57.8 230.2 56.8 227.033 56.8 223.5V209.4C56.8 205.8 57.7667 202.533 59.7 199.6C61.7 196.667 64.4333 194.367 67.9 192.7C71.3667 190.967 75.3333 190.1 79.8 190.1C84.2667 190.1 88.2333 190.967 91.7 192.7C95.2333 194.367 97.9667 196.667 99.9 199.6C101.9 202.533 102.9 205.8 102.9 209.4V223.5C102.9 227.033 101.867 230.2 99.8 233C97.8 235.8 95.0333 238 91.5 239.6C88.0333 241.133 84.1333 241.9 79.8 241.9ZM79.8 231.2C83.1333 231.2 85.7333 230.433 87.6 228.9C89.5333 227.367 90.5 225.3 90.5 222.7V210C90.5 207.267 89.5333 205.067 87.6 203.4C85.7333 201.667 83.1333 200.8 79.8 200.8C76.5333 200.8 73.9333 201.667 72 203.4C70.0667 205.067 69.1 207.267 69.1 210V222.7C69.1 225.3 70.0667 227.367 72 228.9C73.9333 230.433 76.5333 231.2 79.8 231.2ZM130.372 241.9C123.972 241.9 118.805 240.767 114.872 238.5C111.005 236.167 109.039 233.067 108.972 229.2C108.972 227.533 109.639 226.133 110.972 225C112.372 223.867 114.572 223.267 117.572 223.2C118.172 226.133 119.572 228.4 121.772 230C123.972 231.533 126.639 232.3 129.772 232.3C133.172 232.3 135.839 231.867 137.772 231C139.705 230.133 140.672 228.833 140.672 227.1C140.672 225.5 139.872 224.167 138.272 223.1C136.739 222.033 133.672 220.967 129.072 219.9C124.072 218.7 120.172 217.5 117.372 216.3C114.639 215.1 112.605 213.567 111.272 211.7C109.939 209.833 109.272 207.367 109.272 204.3C109.272 200.033 111.072 196.6 114.672 194C118.272 191.4 123.205 190.1 129.472 190.1C135.539 190.1 140.572 191.2 144.572 193.4C148.572 195.533 150.572 198.4 150.572 202C150.572 203.8 149.905 205.133 148.572 206C147.239 206.867 145.039 207.333 141.972 207.4C141.305 204.733 140.039 202.733 138.172 201.4C136.305 200.067 133.672 199.4 130.272 199.4C127.739 199.4 125.539 199.833 123.672 200.7C121.872 201.567 120.972 202.7 120.972 204.1C120.972 205.567 121.739 206.7 123.272 207.5C124.805 208.3 127.472 209.1 131.272 209.9C138.739 211.5 144.139 213.633 147.472 216.3C150.872 218.967 152.572 222.6 152.572 227.2C152.572 231.667 150.572 235.233 146.572 237.9C142.639 240.567 137.239 241.9 130.372 241.9Z" fill="white"/>
<circle cx="80" cy="61" r="13" fill="white"/>
<circle cx="126" cy="61" r="13" fill="white"/>
<defs>
<linearGradient id="paint0_linear_6_754" x1="27.5" y1="15.5" x2="181.5" y2="281" gradientUnits="userSpaceOnUse">
<stop stop-color="#383838"/>
<stop offset="1" stop-color="#101010"/>
</linearGradient>
<linearGradient id="paint1_linear_6_754" x1="194.377" y1="97.9517" x2="48.111" y2="203.242" gradientUnits="userSpaceOnUse">
<stop stop-color="#EC0000"/>
<stop offset="1" stop-color="#960000"/>
</linearGradient>
</defs>
</svg>
