<svg width="210" height="297" viewBox="0 0 210 297" fill="none" xmlns="http://www.w3.org/2000/svg">
<rect width="210" height="297" rx="10" fill="url(#paint0_linear_6_734)"/>
<mask id="path-2-inside-1_6_734" fill="white">
<rect x="6" y="8" width="198" height="280" rx="10"/>
</mask>
<rect x="6" y="8" width="198" height="280" rx="10" stroke="white" stroke-width="30" mask="url(#path-2-inside-1_6_734)"/>
<path d="M34 39.3C34 38.3667 34.2833 37.5667 34.85 36.9C35.45 36.2667 36.1833 35.95 37.05 35.95L65.95 35.95C66.8167 35.95 67.5333 36.2667 68.1 36.9C68.7 37.5333 69 38.3333 69 39.3L69 50.4C69 53.3667 68.4333 55.9833 67.3 58.25C66.1667 60.55 64.5667 62.3167 62.5 63.55C60.4667 64.8167 58.1333 65.45 55.5 65.45L47.6 65.45C44.9667 65.45 42.6167 64.8167 40.55 63.55C38.4833 62.2833 36.8667 60.5 35.7 58.2C34.5667 55.9333 34 53.3333 34 50.4L34 39.3ZM39.75 49.9C39.75 52.8 40.4 55 41.7 56.5C43.0333 58 44.9833 58.75 47.55 58.75L55.6 58.75C58.1 58.75 60 58 61.3 56.5C62.6 55 63.25 52.8 63.25 49.9L63.25 42.65L39.75 42.65L39.75 49.9ZM33.55 84.2715C33.55 81.5381 34.0833 79.0381 35.15 76.7715C36.25 74.5048 37.7333 72.7048 39.6 71.3715C41.4667 70.0715 43.5 69.4215 45.7 69.4215L57.35 69.4215C59.55 69.4215 61.5667 70.0715 63.4 71.3715C65.2667 72.7048 66.7333 74.5048 67.8 76.7715C68.9 79.0382 69.45 81.5382 69.45 84.2715C69.45 87.0048 68.9 89.5048 67.8 91.7715C66.7333 94.0715 65.2667 95.8715 63.4 97.1715C61.5667 98.5048 59.55 99.1715 57.35 99.1715L45.7 99.1715C43.5 99.1715 41.4667 98.5048 39.6 97.1715C37.7333 95.8715 36.25 94.0715 35.15 91.7715C34.0833 89.5048 33.55 87.0048 33.55 84.2715ZM39.4 84.2715C39.4 86.7715 39.9833 88.7715 41.15 90.2715C42.35 91.7715 43.9 92.5215 45.8 92.5215L57.2 92.5215C59.1333 92.5215 60.6833 91.7715 61.85 90.2715C63.05 88.7715 63.65 86.7715 63.65 84.2715C63.65 81.8048 63.05 79.8215 61.85 78.3215C60.6833 76.8215 59.1333 76.0715 57.2 76.0715L45.8 76.0715C43.9 76.0715 42.35 76.8215 41.15 78.3215C39.9833 79.8215 39.4 81.8048 39.4 84.2715ZM33.55 117.571C33.55 114.571 33.9167 111.954 34.65 109.721C35.3833 107.488 36.4167 105.771 37.75 104.571C39.1167 103.404 40.7 102.821 42.5 102.821C45.2333 102.821 46.6 104.671 46.6 108.371C44.0667 108.504 42.15 109.354 40.85 110.921C39.55 112.521 38.9 114.754 38.9 117.621C38.9 119.988 39.3 121.821 40.1 123.121C40.9333 124.421 42.0833 125.071 43.55 125.071C44.5167 125.071 45.3 124.821 45.9 124.321C46.5333 123.821 47.0833 122.971 47.55 121.771C48.05 120.571 48.55 118.821 49.05 116.521C49.8167 113.254 50.6667 110.671 51.6 108.771C52.5333 106.904 53.65 105.554 54.95 104.721C56.2833 103.888 57.9333 103.471 59.9 103.471C61.8 103.471 63.4667 104.021 64.9 105.121C66.3333 106.254 67.45 107.838 68.25 109.871C69.05 111.938 69.45 114.304 69.45 116.971C69.45 119.538 69.1 121.821 68.4 123.821C67.7333 125.854 66.7833 127.438 65.55 128.571C64.3167 129.738 62.9 130.321 61.3 130.321C58.8333 130.321 57.55 128.538 57.45 124.971C59.75 124.771 61.4333 124.038 62.5 122.771C63.5667 121.504 64.1 119.571 64.1 116.971C64.1 114.738 63.7333 113.021 63 111.821C62.2667 110.621 61.2333 110.021 59.9 110.021C58.9667 110.021 58.1833 110.254 57.55 110.721C56.95 111.188 56.4167 111.971 55.95 113.071C55.5167 114.171 55.0667 115.738 54.6 117.771C53.8333 121.204 52.9667 123.921 52 125.921C51.0667 127.921 49.9167 129.371 48.55 130.271C47.2167 131.171 45.5667 131.621 43.6 131.621C41.5667 131.621 39.7833 131.038 38.25 129.871C36.75 128.738 35.5833 127.104 34.75 124.971C33.95 122.871 33.55 120.404 33.55 117.571Z" fill="url(#paint1_linear_6_734)"/>
<path d="M176 256.7C176 257.633 175.717 258.433 175.15 259.1C174.55 259.733 173.817 260.05 172.95 260.05L144.05 260.05C143.183 260.05 142.467 259.733 141.9 259.1C141.3 258.467 141 257.667 141 256.7L141 245.6C141 242.633 141.567 240.017 142.7 237.75C143.833 235.45 145.433 233.683 147.5 232.45C149.533 231.183 151.867 230.55 154.5 230.55L162.4 230.55C165.033 230.55 167.383 231.183 169.45 232.45C171.517 233.717 173.133 235.5 174.3 237.8C175.433 240.067 176 242.667 176 245.6L176 256.7ZM170.25 246.1C170.25 243.2 169.6 241 168.3 239.5C166.967 238 165.017 237.25 162.45 237.25L154.4 237.25C151.9 237.25 150 238 148.7 239.5C147.4 241 146.75 243.2 146.75 246.1L146.75 253.35L170.25 253.35L170.25 246.1ZM176.45 211.729C176.45 214.462 175.917 216.962 174.85 219.229C173.75 221.495 172.267 223.295 170.4 224.629C168.533 225.929 166.5 226.579 164.3 226.579L152.65 226.579C150.45 226.579 148.433 225.929 146.6 224.629C144.733 223.295 143.267 221.495 142.2 219.229C141.1 216.962 140.55 214.462 140.55 211.729C140.55 208.995 141.1 206.495 142.2 204.229C143.267 201.929 144.733 200.129 146.6 198.829C148.433 197.495 150.45 196.829 152.65 196.829L164.3 196.829C166.5 196.829 168.533 197.495 170.4 198.829C172.267 200.129 173.75 201.929 174.85 204.229C175.917 206.495 176.45 208.995 176.45 211.729ZM170.6 211.729C170.6 209.229 170.017 207.229 168.85 205.729C167.65 204.229 166.1 203.479 164.2 203.479L152.8 203.479C150.867 203.479 149.317 204.229 148.15 205.729C146.95 207.229 146.35 209.229 146.35 211.729C146.35 214.195 146.95 216.179 148.15 217.679C149.317 219.179 150.867 219.929 152.8 219.929L164.2 219.929C166.1 219.929 167.65 219.179 168.85 217.679C170.017 216.179 170.6 214.195 170.6 211.729ZM176.45 178.429C176.45 181.429 176.083 184.046 175.35 186.279C174.617 188.512 173.583 190.229 172.25 191.429C170.883 192.596 169.3 193.179 167.5 193.179C164.767 193.179 163.4 191.329 163.4 187.629C165.933 187.496 167.85 186.646 169.15 185.079C170.45 183.479 171.1 181.246 171.1 178.379C171.1 176.012 170.7 174.179 169.9 172.879C169.067 171.579 167.917 170.929 166.45 170.929C165.483 170.929 164.7 171.179 164.1 171.679C163.467 172.179 162.917 173.029 162.45 174.229C161.95 175.429 161.45 177.179 160.95 179.479C160.183 182.746 159.333 185.329 158.4 187.229C157.467 189.096 156.35 190.446 155.05 191.279C153.717 192.112 152.067 192.529 150.1 192.529C148.2 192.529 146.533 191.979 145.1 190.879C143.667 189.746 142.55 188.162 141.75 186.129C140.95 184.062 140.55 181.696 140.55 179.029C140.55 176.462 140.9 174.179 141.6 172.179C142.267 170.146 143.217 168.562 144.45 167.429C145.683 166.262 147.1 165.679 148.7 165.679C151.167 165.679 152.45 167.462 152.55 171.029C150.25 171.229 148.567 171.962 147.5 173.229C146.433 174.496 145.9 176.429 145.9 179.029C145.9 181.262 146.267 182.979 147 184.179C147.733 185.379 148.767 185.979 150.1 185.979C151.033 185.979 151.817 185.746 152.45 185.279C153.05 184.812 153.583 184.029 154.05 182.929C154.483 181.829 154.933 180.262 155.4 178.229C156.167 174.796 157.033 172.079 158 170.079C158.933 168.079 160.083 166.629 161.45 165.729C162.783 164.829 164.433 164.379 166.4 164.379C168.433 164.379 170.217 164.962 171.75 166.129C173.25 167.262 174.417 168.896 175.25 171.029C176.05 173.129 176.45 175.596 176.45 178.429Z" fill="url(#paint2_linear_6_734)"/>
<defs>
<linearGradient id="paint0_linear_6_734" x1="27.5" y1="15.5" x2="181.5" y2="281" gradientUnits="userSpaceOnUse">
<stop stop-color="#383838"/>
<stop offset="1" stop-color="#101010"/>
</linearGradient>
<linearGradient id="paint1_linear_6_734" x1="80.7923" y1="46.5492" x2="11.0311" y2="63.7858" gradientUnits="userSpaceOnUse">
<stop stop-color="#EC0000"/>
<stop offset="1" stop-color="#960000"/>
</linearGradient>
<linearGradient id="paint2_linear_6_734" x1="129.208" y1="249.451" x2="198.969" y2="232.214" gradientUnits="userSpaceOnUse">
<stop stop-color="#EC0000"/>
<stop offset="1" stop-color="#960000"/>
</linearGradient>
</defs>
</svg>
