<svg width="210" height="297" viewBox="0 0 210 297" fill="none" xmlns="http://www.w3.org/2000/svg">
<rect width="210" height="297" rx="10" fill="url(#paint0_linear_6_273)"/>
<mask id="path-2-inside-1_6_273" fill="white">
<rect x="6" y="8" width="198" height="280" rx="10"/>
</mask>
<rect x="6" y="8" width="198" height="280" rx="10" stroke="white" stroke-width="30" mask="url(#path-2-inside-1_6_273)"/>
<path d="M70.5 226V204.85L105.3 171.25C109.4 167.25 112.45 163.55 114.45 160.15C116.55 156.75 117.6 153.05 117.6 149.05C117.6 144.65 116.4 141.25 114 138.85C111.7 136.45 108.5 135.25 104.4 135.25C99.9 135.25 96.35 136.6 93.75 139.3C91.25 141.9 90 145.55 90 150.25H67.5C67.5 143.05 69 136.85 72 131.65C75.1 126.35 79.45 122.25 85.05 119.35C90.65 116.45 97.25 115 104.85 115C111.95 115 118.1 116.35 123.3 119.05C128.6 121.65 132.7 125.3 135.6 130C138.6 134.7 140.1 140.25 140.1 146.65C140.1 153.75 138.35 160.55 134.85 167.05C131.35 173.55 125.75 180.35 118.05 187.45L98.25 205.75H141.3V226H70.5Z" fill="white"/>
<rect x="31" y="33" width="48" height="48" rx="24" fill="white"/>
<path d="M48.37 68V64.37L55.21 57.5C56.17 56.52 56.88 55.64 57.34 54.86C57.8 54.06 58.03 53.24 58.03 52.4C58.03 51.38 57.75 50.59 57.19 50.03C56.63 49.45 55.87 49.16 54.91 49.16C53.85 49.16 53.02 49.47 52.42 50.09C51.82 50.69 51.52 51.53 51.52 52.61H47.77C47.79 51.21 48.09 50.01 48.67 49.01C49.27 47.99 50.11 47.2 51.19 46.64C52.27 46.08 53.53 45.8 54.97 45.8C56.35 45.8 57.55 46.06 58.57 46.58C59.59 47.1 60.38 47.83 60.94 48.77C61.5 49.71 61.78 50.83 61.78 52.13C61.78 53.47 61.43 54.78 60.73 56.06C60.05 57.32 58.95 58.68 57.43 60.14L52.87 64.61H62.05V68H48.37Z" fill="#004C93"/>
<defs>
<linearGradient id="paint0_linear_6_273" x1="19.5" y1="12" x2="176.5" y2="278" gradientUnits="userSpaceOnUse">
<stop stop-color="#006BCD"/>
<stop offset="1" stop-color="#00427E"/>
</linearGradient>
</defs>
</svg>
