<svg width="210" height="297" viewBox="0 0 210 297" fill="none" xmlns="http://www.w3.org/2000/svg">
<rect width="210" height="297" rx="10" fill="url(#paint0_linear_6_278)"/>
<mask id="path-2-inside-1_6_278" fill="white">
<rect x="6" y="8" width="198" height="280" rx="10"/>
</mask>
<rect x="6" y="8" width="198" height="280" rx="10" stroke="white" stroke-width="30" mask="url(#path-2-inside-1_6_278)"/>
<path d="M104.4 227.5C96.9 227.5 90.4 226.25 84.9 223.75C79.5 221.15 75.3 217.5 72.3 212.8C69.3 208 67.8 202.4 67.8 196H90.3C90.3 200 91.5 203.15 93.9 205.45C96.4 207.65 99.9 208.75 104.4 208.75C109 208.75 112.5 207.65 114.9 205.45C117.3 203.25 118.5 200.1 118.5 196V187C118.5 182.9 117.25 179.75 114.75 177.55C112.35 175.25 108.9 174.1 104.4 174.1H91.5V154.75L113.55 135.25H73.05V116.5H136.5V135.85L104.4 164.2V155.05C115.7 155.05 124.6 157.9 131.1 163.6C137.7 169.3 141 177.05 141 186.85V196C141 202.4 139.5 208 136.5 212.8C133.6 217.5 129.4 221.15 123.9 223.75C118.4 226.25 111.9 227.5 104.4 227.5Z" fill="white"/>
<rect x="31" y="33" width="48" height="48" rx="24" fill="white"/>
<path d="M54.79 68.3C53.37 68.3 52.13 68.04 51.07 67.52C50.03 67 49.22 66.27 48.64 65.33C48.06 64.39 47.77 63.28 47.77 62H51.55C51.55 62.98 51.83 63.75 52.39 64.31C52.97 64.85 53.78 65.12 54.82 65.12C55.86 65.12 56.66 64.84 57.22 64.28C57.78 63.72 58.06 62.96 58.06 62V60.29C58.06 59.31 57.78 58.55 57.22 58.01C56.66 57.45 55.86 57.17 54.82 57.17H52.36V53.78L57.19 49.31H48.76V46.1H61V49.49L54.82 55.16V53.96C56.98 53.96 58.69 54.53 59.95 55.67C61.21 56.81 61.84 58.35 61.84 60.29V62C61.84 63.28 61.55 64.39 60.97 65.33C60.39 66.27 59.57 67 58.51 67.52C57.45 68.04 56.21 68.3 54.79 68.3Z" fill="#004C93"/>
<defs>
<linearGradient id="paint0_linear_6_278" x1="19.5" y1="12" x2="176.5" y2="278" gradientUnits="userSpaceOnUse">
<stop stop-color="#006BCD"/>
<stop offset="1" stop-color="#00427E"/>
</linearGradient>
</defs>
</svg>
