<svg width="210" height="297" viewBox="0 0 210 297" fill="none" xmlns="http://www.w3.org/2000/svg">
<rect width="210" height="297" rx="10" fill="url(#paint0_linear_6_406)"/>
<mask id="path-2-inside-1_6_406" fill="white">
<rect x="6" y="8" width="198" height="280" rx="10"/>
</mask>
<rect x="6" y="8" width="198" height="280" rx="10" stroke="white" stroke-width="30" mask="url(#path-2-inside-1_6_406)"/>
<rect x="31" y="33" width="42" height="37.0014" rx="18.5007" fill="white"/>
<path d="M35.2751 51.7354L37.9907 46.6279C38.0115 46.5887 38.0693 46.5941 38.0825 46.6364L39.298 50.5105L40.5135 54.3847C40.5268 54.427 40.4825 54.4644 40.443 54.4441L35.2964 51.8033C35.2716 51.7906 35.262 51.76 35.2751 51.7354Z" fill="url(#paint1_linear_6_406)"/>
<path d="M39.298 50.5105L40.5135 54.3847C40.5268 54.427 40.4825 54.4644 40.443 54.4441L35.2964 51.8033C35.2716 51.7906 35.262 51.76 35.2751 51.7354L37.9907 46.6279C38.0115 46.5887 38.0693 46.5941 38.0825 46.6364L39.298 50.5105ZM39.298 50.5105L55.6051 45.3943C59.6677 44.1197 62.8677 48.9534 60.1076 52.1955V52.1955" stroke="url(#paint2_linear_6_406)" stroke-width="0.75"/>
<path d="M70.6831 50.9148L68.0219 56.0509C68.0015 56.0903 67.9437 56.0855 67.93 56.0433L66.6734 52.1823L65.4168 48.3213C65.4031 48.2792 65.447 48.2413 65.4867 48.2611L70.6611 50.8471C70.686 50.8595 70.6959 50.89 70.6831 50.9148Z" fill="url(#paint3_linear_6_406)"/>
<path d="M66.6734 52.1823L65.4168 48.3213C65.4031 48.2792 65.447 48.2413 65.4867 48.2611L70.6611 50.8471C70.686 50.8595 70.6959 50.89 70.6831 50.9148L68.0219 56.0509C68.0015 56.0903 67.9437 56.0855 67.93 56.0433L66.6734 52.1823ZM66.6734 52.1823L50.4216 57.4716C46.3727 58.7893 43.1216 53.9899 45.8471 50.7186V50.7186" stroke="url(#paint4_linear_6_406)" stroke-width="0.75"/>
<path d="M40.296 151.774L48.1346 137.031C48.7595 135.856 50.4918 136.016 50.8902 137.286L54.3987 148.469L57.9072 159.651C58.3056 160.921 56.9755 162.043 55.7912 161.435L40.9356 153.812C40.191 153.43 39.9031 152.513 40.296 151.774Z" fill="white"/>
<path d="M54.3987 148.469L57.9072 159.651C58.3056 160.921 56.9755 162.043 55.7912 161.435L40.9356 153.812C40.191 153.43 39.9031 152.513 40.296 151.774L48.1346 137.031C48.7595 135.856 50.4918 136.016 50.8902 137.286L54.3987 148.469ZM54.3987 148.469L114.107 129.736C128.982 125.069 140.699 142.767 130.593 154.638V154.638" stroke="white" stroke-width="10"/>
<path d="M168.7 159.135L161.019 173.961C160.406 175.142 158.672 175.001 158.26 173.735L154.633 162.59L151.006 151.445C150.594 150.18 151.912 149.044 153.103 149.639L168.039 157.104C168.788 157.478 169.085 158.392 168.7 159.135Z" fill="white"/>
<path d="M154.633 162.59L151.006 151.445C150.594 150.18 151.912 149.044 153.103 149.639L168.039 157.104C168.788 157.478 169.085 158.392 168.7 159.135L161.019 173.961C160.406 175.142 158.672 175.001 158.26 173.735L154.633 162.59ZM154.633 162.59L95.1275 181.957C80.3026 186.782 68.3986 169.208 78.3781 157.231V157.231" stroke="white" stroke-width="10"/>
<defs>
<linearGradient id="paint0_linear_6_406" x1="27.5" y1="15.5" x2="181.5" y2="281" gradientUnits="userSpaceOnUse">
<stop stop-color="#F0E933"/>
<stop offset="1" stop-color="#BEB707"/>
</linearGradient>
<linearGradient id="paint1_linear_6_406" x1="38.6922" y1="46.9772" x2="44.7494" y2="59.8474" gradientUnits="userSpaceOnUse">
<stop stop-color="#F0E933"/>
<stop offset="1" stop-color="#BEB707"/>
</linearGradient>
<linearGradient id="paint2_linear_6_406" x1="38.6922" y1="46.9772" x2="44.7494" y2="59.8474" gradientUnits="userSpaceOnUse">
<stop stop-color="#F0E933"/>
<stop offset="1" stop-color="#BEB707"/>
</linearGradient>
<linearGradient id="paint3_linear_6_406" x1="67.3167" y1="55.709" x2="61.1231" y2="42.9039" gradientUnits="userSpaceOnUse">
<stop stop-color="#F0E933"/>
<stop offset="1" stop-color="#BEB707"/>
</linearGradient>
<linearGradient id="paint4_linear_6_406" x1="67.3167" y1="55.709" x2="61.1231" y2="42.9039" gradientUnits="userSpaceOnUse">
<stop stop-color="#F0E933"/>
<stop offset="1" stop-color="#BEB707"/>
</linearGradient>
</defs>
</svg>
