<svg width="210" height="297" viewBox="0 0 210 297" fill="none" xmlns="http://www.w3.org/2000/svg">
<rect width="210" height="297" rx="10" fill="url(#paint0_linear_6_343)"/>
<mask id="path-2-inside-1_6_343" fill="white">
<rect x="6" y="8" width="198" height="280" rx="10"/>
</mask>
<rect x="6" y="8" width="198" height="280" rx="10" stroke="white" stroke-width="30" mask="url(#path-2-inside-1_6_343)"/>
<path d="M105 227.5C97.4 227.5 90.8 226.25 85.2 223.75C79.7 221.15 75.4 217.6 72.3 213.1C69.3 208.5 67.8 203.2 67.8 197.2C67.8 190.4 69.7 184.65 73.5 179.95C77.4 175.25 82.85 171.4 89.85 168.4L108.15 160.45C111.25 159.05 113.7 157.1 115.5 154.6C117.3 152 118.2 149.1 118.2 145.9C118.2 142.3 117 139.4 114.6 137.2C112.3 135 109.1 133.9 105 133.9C100.9 133.9 97.6 135 95.1 137.2C92.7 139.4 91.5 142.3 91.5 145.9C91.5 149 92.45 151.85 94.35 154.45C96.25 156.95 98.75 158.9 101.85 160.3L120.15 168.4C127.85 171.8 133.45 175.9 136.95 180.7C140.45 185.4 142.2 190.9 142.2 197.2C142.2 206.5 138.85 213.9 132.15 219.4C125.45 224.8 116.4 227.5 105 227.5ZM105 208.6C109.5 208.6 113.1 207.35 115.8 204.85C118.6 202.35 120 199.2 120 195.4C120 192.4 119 189.45 117 186.55C115 183.65 112.4 181.5 109.2 180.1L88.8 170.95C82.8 168.25 78.05 164.7 74.55 160.3C71.05 155.8 69.3 150.5 69.3 144.4C69.3 138.9 70.75 133.95 73.65 129.55C76.55 125.05 80.65 121.5 85.95 118.9C91.35 116.3 97.7 115 105 115C112.3 115 118.55 116.3 123.75 118.9C129.05 121.5 133.15 125.05 136.05 129.55C138.95 133.95 140.4 138.9 140.4 144.4C140.4 150.8 138.7 156.2 135.3 160.6C131.9 164.9 127.25 168.35 121.35 170.95L100.8 180.1C97.6 181.5 95 183.65 93 186.55C91 189.35 90 192.25 90 195.25C90 199.15 91.35 202.35 94.05 204.85C96.85 207.35 100.5 208.6 105 208.6Z" fill="white"/>
<rect x="31" y="33" width="48" height="48" rx="24" fill="white"/>
<path d="M55 68.3C53.56 68.3 52.31 68.06 51.25 67.58C50.19 67.08 49.37 66.38 48.79 65.48C48.21 64.58 47.92 63.53 47.92 62.33C47.92 61.01 48.29 59.88 49.03 58.94C49.77 58 50.87 57.2 52.33 56.54L55.69 55.01C56.41 54.67 56.97 54.21 57.37 53.63C57.79 53.05 58 52.4 58 51.68C58 50.86 57.73 50.21 57.19 49.73C56.65 49.23 55.92 48.98 55 48.98C54.08 48.98 53.34 49.23 52.78 49.73C52.24 50.23 51.97 50.89 51.97 51.71C51.97 52.41 52.18 53.05 52.6 53.63C53.02 54.21 53.58 54.66 54.28 54.98L57.61 56.51C59.19 57.21 60.33 58.04 61.03 59C61.73 59.94 62.08 61.05 62.08 62.33C62.08 64.17 61.44 65.63 60.16 66.71C58.9 67.77 57.18 68.3 55 68.3ZM55 65.09C56.04 65.09 56.86 64.82 57.46 64.28C58.08 63.72 58.39 62.99 58.39 62.09C58.39 61.39 58.18 60.73 57.76 60.11C57.34 59.47 56.76 58.98 56.02 58.64L52.45 56.99C51.09 56.35 50.05 55.59 49.33 54.71C48.63 53.81 48.28 52.74 48.28 51.5C48.28 50.38 48.55 49.39 49.09 48.53C49.63 47.67 50.4 47 51.4 46.52C52.42 46.04 53.62 45.8 55 45.8C56.38 45.8 57.56 46.04 58.54 46.52C59.54 47 60.31 47.67 60.85 48.53C61.41 49.39 61.69 50.38 61.69 51.5C61.69 52.76 61.34 53.83 60.64 54.71C59.94 55.59 58.91 56.35 57.55 56.99L53.95 58.67C53.23 58.99 52.66 59.46 52.24 60.08C51.82 60.7 51.61 61.36 51.61 62.06C51.61 62.96 51.91 63.69 52.51 64.25C53.13 64.81 53.96 65.09 55 65.09Z" fill="#CDC626"/>
<defs>
<linearGradient id="paint0_linear_6_343" x1="27.5" y1="15.5" x2="181.5" y2="281" gradientUnits="userSpaceOnUse">
<stop stop-color="#F0E933"/>
<stop offset="1" stop-color="#BEB707"/>
</linearGradient>
</defs>
</svg>
