<svg width="210" height="297" viewBox="0 0 210 297" fill="none" xmlns="http://www.w3.org/2000/svg">
<rect width="210" height="297" rx="10" fill="url(#paint0_linear_6_213)"/>
<mask id="path-2-inside-1_6_213" fill="white">
<rect x="6" y="8" width="198" height="280" rx="10"/>
</mask>
<rect x="6" y="8" width="198" height="280" rx="10" stroke="white" stroke-width="30" mask="url(#path-2-inside-1_6_213)"/>
<path d="M105 227.5C97.4 227.5 90.7 225.95 84.9 222.85C79.2 219.65 74.75 215.2 71.55 209.5C68.35 203.8 66.75 197.2 66.75 189.7C66.75 184.7 67.7 179.25 69.6 173.35C71.5 167.35 74 161.8 77.1 156.7L101.7 116.5H126.75L93.45 168.4L94.5 169C96.7 165.8 99.5 163.35 102.9 161.65C106.4 159.95 110.3 159.1 114.6 159.1C120.3 159.1 125.3 160.5 129.6 163.3C133.9 166 137.25 169.85 139.65 174.85C142.05 179.75 143.25 185.5 143.25 192.1C143.25 199.2 141.65 205.4 138.45 210.7C135.25 216 130.8 220.15 125.1 223.15C119.4 226.05 112.7 227.5 105 227.5ZM105 208.75C109.9 208.75 113.85 207.25 116.85 204.25C119.85 201.25 121.35 197.3 121.35 192.4C121.35 187.4 119.85 183.4 116.85 180.4C113.85 177.3 109.9 175.75 105 175.75C100.1 175.75 96.15 177.3 93.15 180.4C90.15 183.4 88.65 187.4 88.65 192.4C88.65 197.3 90.15 201.25 93.15 204.25C96.15 207.25 100.1 208.75 105 208.75Z" fill="white"/>
<rect x="31" y="33" width="48" height="48" rx="24" fill="white"/>
<path d="M55 68.3C53.54 68.3 52.25 68 51.13 67.4C50.03 66.78 49.17 65.92 48.55 64.82C47.95 63.7 47.65 62.41 47.65 60.95C47.65 59.91 47.82 58.82 48.16 57.68C48.52 56.54 49.01 55.47 49.63 54.47L54.79 46.1H58.96L52.48 56.3L52.66 56.42C53.06 55.8 53.6 55.33 54.28 55.01C54.96 54.69 55.72 54.53 56.56 54.53C57.74 54.53 58.76 54.81 59.62 55.37C60.48 55.93 61.15 56.71 61.63 57.71C62.11 58.71 62.35 59.88 62.35 61.22C62.35 62.64 62.04 63.88 61.42 64.94C60.82 66 59.97 66.83 58.87 67.43C57.79 68.01 56.5 68.3 55 68.3ZM55 65.12C56.1 65.12 56.99 64.77 57.67 64.07C58.35 63.35 58.69 62.42 58.69 61.28C58.69 60.1 58.35 59.16 57.67 58.46C56.99 57.74 56.1 57.38 55 57.38C53.9 57.38 53.01 57.74 52.33 58.46C51.65 59.16 51.31 60.1 51.31 61.28C51.31 62.42 51.65 63.35 52.33 64.07C53.01 64.77 53.9 65.12 55 65.12Z" fill="#CF1A1A"/>
<defs>
<linearGradient id="paint0_linear_6_213" x1="28.1716" y1="23.7954" x2="170" y2="285" gradientUnits="userSpaceOnUse">
<stop stop-color="#EC0000"/>
<stop offset="1" stop-color="#960000"/>
</linearGradient>
</defs>
</svg>
