<svg width="210" height="297" viewBox="0 0 210 297" fill="none" xmlns="http://www.w3.org/2000/svg">
<rect width="210" height="297" rx="10" fill="url(#paint0_linear_6_474)"/>
<mask id="path-2-inside-1_6_474" fill="white">
<rect x="6" y="8" width="198" height="280" rx="10"/>
</mask>
<rect x="6" y="8" width="198" height="280" rx="10" stroke="white" stroke-width="30" mask="url(#path-2-inside-1_6_474)"/>
<rect x="31" y="33" width="35" height="36" rx="17.5" fill="white"/>
<rect x="46" y="39" width="7" height="10" rx="3.5" fill="url(#paint1_linear_6_474)"/>
<rect x="46" y="53.4286" width="7" height="10" rx="3.5" fill="url(#paint2_linear_6_474)"/>
<rect x="50" y="45.8571" width="7" height="10" rx="3.5" fill="url(#paint3_linear_6_474)"/>
<rect x="41" y="45.8571" width="7" height="10" rx="3.5" fill="url(#paint4_linear_6_474)"/>
<rect x="84" y="63" width="49" height="70" rx="10" fill="url(#paint5_linear_6_474)"/>
<rect x="84" y="164" width="49" height="70" rx="10" fill="url(#paint6_linear_6_474)"/>
<rect x="112" y="111" width="49" height="70" rx="10" fill="url(#paint7_linear_6_474)"/>
<path d="M141.5 164V156.75H125.25V147.7L139.3 127.5H146.3L131.25 149.35V151.25H141.5V143H147.75V164H141.5Z" fill="white"/>
<rect x="49" y="111" width="49" height="70" rx="10" fill="url(#paint8_linear_6_474)"/>
<path d="M70.9 157.4V148.4H61.95V142.6H70.9V133.6H77.1V142.6H86.05V148.4H77.1V157.4H70.9Z" fill="white"/>
<defs>
<linearGradient id="paint0_linear_6_474" x1="27.5" y1="15.5" x2="181.5" y2="281" gradientUnits="userSpaceOnUse">
<stop stop-color="#383838"/>
<stop offset="1" stop-color="#101010"/>
</linearGradient>
<linearGradient id="paint1_linear_6_474" x1="47.0167" y1="39.6229" x2="51.8567" y2="48.1841" gradientUnits="userSpaceOnUse">
<stop stop-color="#01CC09"/>
<stop offset="1" stop-color="#007B05"/>
</linearGradient>
<linearGradient id="paint2_linear_6_474" x1="46.9167" y1="53.9505" x2="52.1276" y2="62.8444" gradientUnits="userSpaceOnUse">
<stop stop-color="#F0E933"/>
<stop offset="1" stop-color="#BEB707"/>
</linearGradient>
<linearGradient id="paint3_linear_6_474" x1="50.9391" y1="46.6583" x2="55.7405" y2="55.4126" gradientUnits="userSpaceOnUse">
<stop stop-color="#EC0000"/>
<stop offset="1" stop-color="#960000"/>
</linearGradient>
<linearGradient id="paint4_linear_6_474" x1="41.65" y1="46.2612" x2="46.9617" y2="55.1706" gradientUnits="userSpaceOnUse">
<stop stop-color="#006BCD"/>
<stop offset="1" stop-color="#00427E"/>
</linearGradient>
<linearGradient id="paint5_linear_6_474" x1="91.1167" y1="67.3603" x2="124.997" y2="127.289" gradientUnits="userSpaceOnUse">
<stop stop-color="#01CC09"/>
<stop offset="1" stop-color="#007B05"/>
</linearGradient>
<linearGradient id="paint6_linear_6_474" x1="90.4167" y1="167.653" x2="126.893" y2="229.911" gradientUnits="userSpaceOnUse">
<stop stop-color="#F0E933"/>
<stop offset="1" stop-color="#BEB707"/>
</linearGradient>
<linearGradient id="paint7_linear_6_474" x1="118.573" y1="116.608" x2="152.183" y2="177.888" gradientUnits="userSpaceOnUse">
<stop stop-color="#EC0000"/>
<stop offset="1" stop-color="#960000"/>
</linearGradient>
<linearGradient id="paint8_linear_6_474" x1="53.55" y1="113.828" x2="90.7321" y2="176.195" gradientUnits="userSpaceOnUse">
<stop stop-color="#006BCD"/>
<stop offset="1" stop-color="#00427E"/>
</linearGradient>
</defs>
</svg>
