<svg width="210" height="297" viewBox="0 0 210 297" fill="none" xmlns="http://www.w3.org/2000/svg">
<rect width="210" height="297" rx="10" fill="url(#paint0_linear_6_268)"/>
<mask id="path-2-inside-1_6_268" fill="white">
<rect x="6" y="8" width="198" height="280" rx="10"/>
</mask>
<rect x="6" y="8" width="198" height="280" rx="10" stroke="white" stroke-width="30" mask="url(#path-2-inside-1_6_268)"/>
<path d="M83.25 226L116.55 174.1L115.5 173.5C113.3 176.7 110.45 179.15 106.95 180.85C103.55 182.55 99.7 183.4 95.4 183.4C89.7 183.4 84.7 182.05 80.4 179.35C76.1 176.55 72.75 172.7 70.35 167.8C67.95 162.8 66.75 157 66.75 150.4C66.75 143.3 68.35 137.1 71.55 131.8C74.75 126.5 79.2 122.4 84.9 119.5C90.7 116.5 97.4 115 105 115C112.7 115 119.4 116.6 125.1 119.8C130.8 122.9 135.25 127.3 138.45 133C141.65 138.6 143.25 145.2 143.25 152.8C143.25 157.7 142.3 163.15 140.4 169.15C138.6 175.15 136.1 180.7 132.9 185.8L108.3 226H83.25ZM105 166.75C109.9 166.75 113.85 165.25 116.85 162.25C119.85 159.15 121.35 155.1 121.35 150.1C121.35 145.2 119.85 141.25 116.85 138.25C113.85 135.25 109.9 133.75 105 133.75C100.1 133.75 96.15 135.25 93.15 138.25C90.15 141.25 88.65 145.2 88.65 150.1C88.65 155.1 90.15 159.15 93.15 162.25C96.15 165.25 100.1 166.75 105 166.75Z" fill="white"/>
<rect x="31" y="33" width="48" height="48" rx="24" fill="white"/>
<path d="M51.04 68L57.52 57.8L57.34 57.68C56.94 58.3 56.4 58.77 55.72 59.09C55.04 59.41 54.28 59.57 53.44 59.57C52.28 59.57 51.26 59.29 50.38 58.73C49.52 58.17 48.85 57.39 48.37 56.39C47.89 55.39 47.65 54.22 47.65 52.88C47.65 51.44 47.95 50.2 48.55 49.16C49.17 48.1 50.03 47.28 51.13 46.7C52.23 46.1 53.51 45.8 54.97 45.8C56.47 45.8 57.77 46.11 58.87 46.73C59.97 47.33 60.82 48.18 61.42 49.28C62.04 50.38 62.35 51.67 62.35 53.15C62.35 54.17 62.18 55.26 61.84 56.42C61.5 57.56 61.01 58.63 60.37 59.63L55.21 68H51.04ZM55 56.72C56.1 56.72 56.99 56.37 57.67 55.67C58.35 54.95 58.69 54 58.69 52.82C58.69 51.68 58.35 50.76 57.67 50.06C56.99 49.34 56.1 48.98 55 48.98C53.9 48.98 53.01 49.34 52.33 50.06C51.65 50.76 51.31 51.68 51.31 52.82C51.31 54 51.65 54.95 52.33 55.67C53.01 56.37 53.9 56.72 55 56.72Z" fill="#009306"/>
<defs>
<linearGradient id="paint0_linear_6_268" x1="30.5" y1="18.5" x2="173.5" y2="274" gradientUnits="userSpaceOnUse">
<stop stop-color="#01CC09"/>
<stop offset="1" stop-color="#007B05"/>
</linearGradient>
</defs>
</svg>
