<svg width="210" height="297" viewBox="0 0 210 297" fill="none" xmlns="http://www.w3.org/2000/svg">
<rect width="210" height="297" rx="10" fill="url(#paint0_linear_6_248)"/>
<mask id="path-2-inside-1_6_248" fill="white">
<rect x="6" y="8" width="198" height="280" rx="10"/>
</mask>
<rect x="6" y="8" width="198" height="280" rx="10" stroke="white" stroke-width="30" mask="url(#path-2-inside-1_6_248)"/>
<path d="M104.85 227.5C93.95 227.5 85.3 224.8 78.9 219.4C72.5 214 69.2 206.7 69 197.5H91.5C91.7 200.8 92.95 203.4 95.25 205.3C97.55 207.1 100.75 208 104.85 208C109.25 208 112.6 206.9 114.9 204.7C117.3 202.4 118.5 199.25 118.5 195.25V184.6C118.5 180.5 117.35 177.4 115.05 175.3C112.75 173.1 109.35 172 104.85 172C102.15 172 99.8 172.4 97.8 173.2C95.9 173.9 94.4 175 93.3 176.5H71.55L72.3 116.5H136.95V136.75H93.45L93.15 165.25H97.8L93 169C93 164.4 94.75 160.8 98.25 158.2C101.85 155.5 106.7 154.15 112.8 154.15C121.7 154.15 128.6 156.85 133.5 162.25C138.5 167.55 141 175 141 184.6V195.25C141 205.25 137.8 213.15 131.4 218.95C125 224.65 116.15 227.5 104.85 227.5Z" fill="white"/>
<rect x="31" y="33" width="48" height="48" rx="24" fill="white"/>
<path d="M54.97 68.3C52.95 68.3 51.33 67.8 50.11 66.8C48.89 65.78 48.22 64.4 48.1 62.66H51.85C51.93 63.42 52.23 64.01 52.75 64.43C53.29 64.83 54.03 65.03 54.97 65.03C56.01 65.03 56.8 64.76 57.34 64.22C57.88 63.66 58.15 62.89 58.15 61.91V59.78C58.15 58.78 57.88 58.02 57.34 57.5C56.8 56.96 56.01 56.69 54.97 56.69C54.33 56.69 53.78 56.82 53.32 57.08C52.86 57.34 52.51 57.7 52.27 58.16H48.61L48.76 46.1H61.09V49.49H52.3L52.24 55.85H53.11L52.21 56.6C52.21 55.68 52.57 54.96 53.29 54.44C54.03 53.9 55.02 53.63 56.26 53.63C58.04 53.61 59.42 54.15 60.4 55.25C61.4 56.33 61.9 57.84 61.9 59.78V61.91C61.9 63.89 61.28 65.45 60.04 66.59C58.82 67.73 57.13 68.3 54.97 68.3Z" fill="#009306"/>
<defs>
<linearGradient id="paint0_linear_6_248" x1="30.5" y1="18.5" x2="173.5" y2="274" gradientUnits="userSpaceOnUse">
<stop stop-color="#01CC09"/>
<stop offset="1" stop-color="#007B05"/>
</linearGradient>
</defs>
</svg>
